<svg width="30" height="30" viewBox="0 0 30 30" fill="none" xmlns="http://www.w3.org/2000/svg">
<g clip-path="url(#clip0)">
<path d="M11.5624 0H2.18742C0.981216 0 0 0.981216 0 2.18742V7.81242C0 9.01886 0.981216 10.0001 2.18742 10.0001H11.5624C12.7689 10.0001 13.7501 9.01886 13.7501 7.81242V2.18742C13.7501 0.981216 12.7689 0 11.5624 0Z" fill="#333333"/>
<path d="M11.5624 12.4999H2.18742C0.981216 12.4999 0 13.4812 0 14.6876V27.8126C0 29.0188 0.981216 30 2.18742 30H11.5624C12.7689 30 13.7501 29.0188 13.7501 27.8126V14.6876C13.7501 13.4812 12.7689 12.4999 11.5624 12.4999Z" fill="#333333"/>
<path d="M27.8126 19.9999H18.4376C17.2312 19.9999 16.2499 20.9812 16.2499 22.1876V27.8126C16.2499 29.0188 17.2312 30 18.4376 30H27.8126C29.0188 30 30 29.0188 30 27.8126V22.1876C30 20.9812 29.0188 19.9999 27.8126 19.9999Z" fill="#333333"/>
<path d="M27.8126 0H18.4376C17.2312 0 16.2499 0.981216 16.2499 2.18742V15.3124C16.2499 16.5189 17.2312 17.5001 18.4376 17.5001H27.8126C29.0188 17.5001 30 16.5189 30 15.3124V2.18742C30 0.981216 29.0188 0 27.8126 0V0Z" fill="#333333"/>
</g>
<defs>
<clipPath id="clip0">
<rect width="30" height="30" fill="white"/>
</clipPath>
</defs>
</svg>
