<svg width="30" height="30" viewBox="0 0 30 30" fill="none" xmlns="http://www.w3.org/2000/svg">
<path d="M20.4991 3.64432C19.8665 3.36793 19.1296 3.65674 18.8532 4.28938C18.5768 4.92203 18.8656 5.65891 19.4983 5.9353C23.5654 7.71211 26.25 11.7348 26.25 16.2499C26.25 22.4629 21.2125 27.5 14.9999 27.5C8.78644 27.5 3.7498 22.4634 3.7498 16.2499C3.7498 11.7358 6.43341 7.7131 10.4994 5.93512C11.1319 5.65856 11.4205 4.92156 11.1439 4.28903C10.8673 3.65651 10.1303 3.36793 9.49777 3.64455C4.52963 5.81694 1.24982 10.7333 1.24982 16.2499C1.24982 23.844 7.40578 30 14.9999 30C22.5933 30 28.7501 23.8436 28.7501 16.2499C28.7501 10.7321 25.4689 5.81541 20.4991 3.64432Z" fill="#DB261B"/>
<path d="M14.9995 13.7501C15.6899 13.7501 16.2495 13.1905 16.2495 12.5001V1.25005C16.2495 0.559633 15.6899 0 14.9995 0C14.3091 0 13.7495 0.559633 13.7495 1.24999V12.5001C13.7495 13.1904 14.3091 13.7501 14.9995 13.7501Z" fill="#DB261B"/>
</svg>
