<svg width="35" height="23" viewBox="0 0 35 23" fill="none" xmlns="http://www.w3.org/2000/svg">
<path d="M34.9541 14.9627L34.1059 10.2948C34.0552 10.0156 33.7873 9.8305 33.5084 9.88106C33.2292 9.93183 33.044 10.1993 33.0948 10.4785L33.9431 15.1473C34.0257 15.5971 33.928 16.0523 33.6681 16.4289C33.4083 16.8055 33.0174 17.0584 32.5658 17.1413L29.2579 17.7607C28.9789 17.8129 28.7952 18.0814 28.8474 18.3603C28.8936 18.6073 29.1094 18.7797 29.3518 18.7797C29.3832 18.7797 32.7531 18.1518 32.7531 18.1518C33.4729 18.0196 34.0983 17.615 34.5141 17.0124C34.9298 16.41 35.086 15.6816 34.9541 14.9627Z" fill="#333333"/>
<path d="M26.8344 18.1934L15.4467 20.2831C14.5175 20.4536 13.6227 19.8365 13.4523 18.9076L11.7271 9.50542C11.5566 8.57616 12.1737 7.68144 13.1027 7.51097L30.2237 4.36891C30.6733 4.28642 31.1285 4.38392 31.5053 4.64386C31.8819 4.90373 32.1348 5.29461 32.2174 5.7444L32.6546 8.12733C32.7057 8.40652 32.9732 8.5911 33.2527 8.54006C33.5318 8.48881 33.7166 8.22105 33.6653 7.94193L33.2282 5.55893C33.0961 4.83912 32.6914 4.21373 32.0889 3.79791C31.4862 3.38217 30.758 3.22589 30.0381 3.35805L29.9896 3.36696L29.9117 2.94347C29.7921 2.29122 29.4255 1.72474 28.8798 1.34833C28.334 0.971977 27.6743 0.830632 27.0221 0.950258L9.39275 4.18509C8.04672 4.43201 7.15254 5.7283 7.39953 7.07467L9.21804 16.9857C9.43735 18.181 10.484 19.0199 11.6585 19.0199C11.8066 19.0199 11.9569 19.0066 12.1077 18.9789L12.4102 18.9233L12.4414 19.093C12.6836 20.4129 13.8393 21.3392 15.1362 21.3392C15.2997 21.3392 15.4656 21.3245 15.6321 21.2939L27.0198 19.2042C27.2989 19.153 27.4837 18.8852 27.4325 18.6061C27.3813 18.327 27.1131 18.142 26.8344 18.1934ZM11.9222 17.9681C11.1332 18.113 10.3736 17.5889 10.229 16.8003L8.41046 6.88927C8.26576 6.10027 8.78962 5.34065 9.57829 5.19601L27.2077 1.96118C27.5898 1.89096 27.9767 1.97386 28.2964 2.19441C28.6161 2.41495 28.8308 2.74684 28.9009 3.12908L28.9787 3.55256L12.9171 6.50018C11.4308 6.77287 10.4435 8.20427 10.7162 9.69096L12.2247 17.9126L11.9222 17.9681Z" fill="#333333"/>
<path d="M18.2941 12.3262C18.2941 14.83 20.3311 16.867 22.8348 16.867C25.3386 16.867 27.3756 14.83 27.3756 12.3262C27.3756 9.82246 25.3386 7.78546 22.8348 7.78546C20.3311 7.78546 18.2941 9.82246 18.2941 12.3262ZM26.3478 12.3262C26.3478 14.2633 24.7719 15.8393 22.8348 15.8393C20.8977 15.8393 19.3218 14.2633 19.3218 12.3262C19.3218 10.3891 20.8977 8.81317 22.8348 8.81317C24.7719 8.81317 26.3478 10.3891 26.3478 12.3262Z" fill="#333333"/>
<path d="M0.635961 15.5684L3.73472 14.8109C4.01042 14.7435 4.17924 14.4654 4.11189 14.1898C4.04454 13.9141 3.76637 13.7456 3.49074 13.8126L0.391913 14.5701C0.116212 14.6375 -0.0526071 14.9156 0.0147424 15.1913C0.0720888 15.426 0.282222 15.5832 0.513526 15.5832C0.553881 15.5832 0.594989 15.5784 0.635961 15.5684Z" fill="#333333"/>
<path d="M7.50758 19.3444L4.40882 20.1019C4.13312 20.1694 3.9643 20.4475 4.03165 20.7231C4.089 20.9578 4.29913 21.1151 4.53043 21.1151C4.57079 21.1151 4.6119 21.1103 4.65287 21.1003L7.75162 20.3428C8.02732 20.2754 8.19614 19.9973 8.12879 19.7216C8.06144 19.446 7.78328 19.2773 7.50758 19.3444Z" fill="#333333"/>
<path d="M6.03251 16.2243L1.21226 17.4637C0.937382 17.5344 0.771852 17.8145 0.842558 18.0893C0.902234 18.3213 1.11093 18.4754 1.33983 18.4754C1.38218 18.4754 1.42527 18.4701 1.46816 18.459L6.28841 17.2196C6.56329 17.1489 6.72882 16.8688 6.65811 16.594C6.58741 16.3191 6.30718 16.1534 6.03251 16.2243Z" fill="#333333"/>
<path d="M6.09127 14.2749C6.13046 14.2749 6.1702 14.2705 6.20994 14.261L6.86117 14.107C7.13735 14.0416 7.30829 13.7648 7.243 13.4886C7.17763 13.2124 6.9007 13.0415 6.62466 13.1068L5.97343 13.2608C5.69725 13.3262 5.52631 13.603 5.5916 13.8792C5.64758 14.1156 5.85846 14.2749 6.09127 14.2749Z" fill="#333333"/>
<path d="M1.92289 20.8015L0.752253 21.077C0.476004 21.142 0.304718 21.4186 0.369738 21.6949C0.42544 21.9316 0.636464 22.0912 0.869481 22.0912C0.908465 22.0912 0.947998 22.0867 0.987599 22.0774L2.15823 21.8019C2.43448 21.7369 2.60577 21.4602 2.54075 21.184C2.47573 20.9077 2.19914 20.7367 1.92289 20.8015Z" fill="#333333"/>
</svg>
