<svg width="30" height="30" viewBox="0 0 30 30" fill="none" xmlns="http://www.w3.org/2000/svg">
<path d="M28.0435 11.7391H25.6017C25.397 11.0707 25.1289 10.425 24.8035 9.81L26.5285 8.085C26.8976 7.71587 27.1011 7.22413 27.1011 6.70044C27.1011 6.17739 26.8976 5.68565 26.5285 5.31652L24.6828 3.47087C23.9452 2.73326 22.6539 2.7313 21.915 3.47087L20.19 5.19587C19.5757 4.87043 18.9293 4.60304 18.2609 4.39761V1.95652C18.2609 0.877826 17.383 0 16.3043 0H13.6957C12.617 0 11.7391 0.877826 11.7391 1.95652V4.39826C11.0707 4.6037 10.425 4.87109 9.81 5.19652L8.08435 3.47152C7.3213 2.70848 6.07957 2.70848 5.31652 3.47152L3.47022 5.31717C2.70783 6.08022 2.70783 7.32196 3.47022 8.085L5.19522 9.81065C4.86978 10.425 4.60239 11.0713 4.39696 11.7398H1.95652C0.877826 11.7398 0 12.6176 0 13.6963V16.305C0 17.383 0.877826 18.2609 1.95652 18.2609H4.39826C4.6037 18.9293 4.87109 19.575 5.19652 20.19L3.47152 21.9157C2.70848 22.6787 2.70848 23.9204 3.47152 24.6835L5.31717 26.5298C6.08022 27.2922 7.32196 27.2922 8.085 26.5298L9.81065 24.8048C10.425 25.1302 11.0713 25.3976 11.7398 25.603V28.0435C11.7398 29.1222 12.6176 30 13.6963 30H16.305C17.3837 30 18.2615 29.1222 18.2615 28.0435V25.6017C18.93 25.3963 19.5763 25.1289 20.1907 24.8035L21.9157 26.5291C22.6552 27.268 23.9465 27.2667 24.6835 26.5291L26.5291 24.6835C26.8983 24.3143 27.1017 23.8226 27.1017 23.2996C27.1017 22.7759 26.8983 22.2848 26.5291 21.9157L24.8041 20.19C25.1296 19.5757 25.397 18.9293 25.6024 18.2609H28.0435C29.1222 18.2609 30 17.383 30 16.3043V13.6957C30 12.617 29.1222 11.7391 28.0435 11.7391ZM28.6957 16.3043C28.6957 16.6637 28.4035 16.9565 28.0435 16.9565H25.1087C24.8113 16.9565 24.5517 17.158 24.4774 17.4457C24.2465 18.3359 23.895 19.1857 23.4313 19.9709C23.2807 20.2272 23.3217 20.5533 23.5317 20.7633L25.6057 22.8378C25.7283 22.9604 25.7961 23.1241 25.7961 23.2996C25.7961 23.475 25.7283 23.6387 25.6057 23.7613L23.76 25.607C23.5148 25.8522 23.0824 25.8522 22.8365 25.607L20.7626 23.533C20.5526 23.3224 20.2265 23.282 19.9696 23.4326C19.1857 23.8957 18.3359 24.2478 17.445 24.478C17.158 24.5517 16.9565 24.8113 16.9565 25.1087V28.0435C16.9565 28.4028 16.6643 28.6957 16.3043 28.6957H13.6957C13.3363 28.6957 13.0435 28.4028 13.0435 28.0435V25.1087C13.0435 24.8113 12.842 24.5517 12.5543 24.4774C11.6641 24.2472 10.8143 23.8957 10.0291 23.432C9.92609 23.3707 9.81196 23.3413 9.69783 23.3413C9.52891 23.3413 9.36196 23.4065 9.23609 23.5324L7.16217 25.6063C6.90717 25.8607 6.4937 25.8607 6.2387 25.6063L4.39304 23.7607C4.13804 23.5057 4.13804 23.0915 4.39304 22.8372L6.46696 20.7633C6.67761 20.5526 6.7187 20.2265 6.56739 19.9709C6.10435 19.1857 5.75217 18.3365 5.52196 17.4457C5.44826 17.158 5.1887 16.9565 4.8913 16.9565H1.95652C1.59717 16.9565 1.30435 16.6637 1.30435 16.3043V13.6957C1.30435 13.3363 1.59717 13.0435 1.95652 13.0435H4.8913C5.1887 13.0435 5.44826 12.842 5.52261 12.5543C5.75283 11.6641 6.10435 10.8143 6.56804 10.0291C6.71935 9.77283 6.67826 9.44674 6.46761 9.23674L4.3937 7.16283C4.13935 6.90848 4.13935 6.49435 4.3937 6.23935L6.23935 4.3937C6.49435 4.1387 6.90783 4.13935 7.16283 4.3937L9.23674 6.46761C9.44739 6.67826 9.77283 6.72 10.0291 6.56804C10.8143 6.105 11.6635 5.75283 12.5543 5.52261C12.842 5.44826 13.0435 5.1887 13.0435 4.8913V1.95652C13.0435 1.59717 13.3363 1.30435 13.6957 1.30435H16.3043C16.6643 1.30435 16.9565 1.59717 16.9565 1.95652V4.8913C16.9565 5.1887 17.158 5.44826 17.4457 5.52261C18.3365 5.75283 19.1863 6.105 19.9702 6.56804C20.2272 6.71935 20.5533 6.67891 20.7633 6.46761L22.8372 4.3937C23.083 4.14717 23.5154 4.14783 23.7607 4.3937L25.6063 6.23935C25.7289 6.36196 25.7967 6.5263 25.7967 6.70109C25.7967 6.87587 25.7289 7.04022 25.6063 7.16283L23.5324 9.23674C23.3224 9.44739 23.2807 9.77348 23.432 10.0291C23.8957 10.8143 24.2472 11.6635 24.478 12.5543C24.5517 12.842 24.8113 13.0435 25.1087 13.0435H28.0435C28.4035 13.0435 28.6957 13.3363 28.6957 13.6957V16.3043Z" fill="#333333"/>
<path d="M15 9.13043C11.7639 9.13043 9.13043 11.7639 9.13043 15C9.13043 18.2361 11.7639 20.8696 15 20.8696C18.2367 20.8696 20.8696 18.2361 20.8696 15C20.8696 11.7639 18.2367 9.13043 15 9.13043ZM15 19.5652C12.4826 19.5652 10.4348 17.5174 10.4348 15C10.4348 12.4826 12.4826 10.4348 15 10.4348C17.5167 10.4348 19.5652 12.4826 19.5652 15C19.5652 17.5174 17.5167 19.5652 15 19.5652Z" fill="#333333"/>
</svg>
